# xmcd
#
# Track frame offsets: 
#        150
#        11810
#        25543
#        38049
#        51080
#        65631
#        77226
#        88666
#        102167
#        114217
#        125230
#        136188
#        148171
#        160853
#        174276
#        186682
#        200918
#        213530
#        227080
#        238824
#        249255
#        262886
#        276197
#        289499
#        301519
#        313608
#        327926
#        340601
#
# Disc length: 4722 seconds
#
# Revision: 2
# Processed by: cddbd v1.5.1PL2 Copyright (c) Steve Scherf et al.
# Submitted via: ExactAudioCopy v0.95b1
#
DISCID=9912701c
DTITLE=Various Artist - Nashville Classics
DYEAR=1900
DGENRE=
TTITLE0=Orange Clossom Special - Bill Monroe and His Bluegrass Boys
TTITLE1=I'll Be Back In A Year Little Darlin - Texas Jim Robertson
TTITLE2=There's A Star-Spangled Banner Waving Somewhere - Elton Britt
TTITLE3=Each Minute Seems A Million Year - Eddy Arnold
TTITLE4=Shame On You - Bill Boyd and The Cowboy Ramblers
TTITLE5=Stars And Stripes On Iwo Jima - Sons Of The Pioneers
TTITLE6=Sioux City Sue - Zeke Manners and His Band
TTITLE7=I Want To Be A Cowboy's Sweetheart - Rosalie Allan
TTITLE8=Filipino Baby - Texas Jim Robertson
TTITLE9=Rose Of The Alamo - Rosalie Allan And The Black River Riders
TTITLE10=My Chickashay - Roy Rogers With Country Washburne
TTITLE11=It's Dark Outside - Spade Cooley
TTITLE12=I'll Never Trust You Again - Jenny Lou Carson
TTITLE13=Teardrops Im My Heart - Sons Of The Pioneers
TTITLE14=I'll Hold You In My Heart - Eddy Arnold
TTITLE15=I'm My Own Gradpa - Lonzo and Oskar
TTITLE16=Garden In The Sky - The Blue Sky Boys
TTITLE17=Tennessee Waltz - Pee Wee King
TTITLE18=Bouquet Af Roses - Eddy Arnold
TTITLE19=Candy Kissis - Elton Britt and The Skytoppers
TTITLE20=Death At The Bar - Kitty Wells
TTITLE21=Birningham Jail - Slimm Whitman
TTITLE22=Baby, It's Could Outside - Homer and Jethro With June Carter
TTITLE23=I Wish I Knew - Dolph Hewitt
TTITLE24=Marriage Vow - Hank Snow
TTITLE25=The Prisoner's Song - Vernon Dalhart
TTITLE26=Waiting For A Train - Jimmie Rogers
TTITLE27=I'm Thinking Tonight Of The Blue Eyes - The Carter Family
EXTD=
EXTT0=
EXTT1=
EXTT2=
EXTT3=
EXTT4=
EXTT5=
EXTT6=
EXTT7=
EXTT8=
EXTT9=
EXTT10=
EXTT11=
EXTT12=
EXTT13=
EXTT14=
EXTT15=
EXTT16=
EXTT17=
EXTT18=
EXTT19=
EXTT20=
EXTT21=
EXTT22=
EXTT23=
EXTT24=
EXTT25=
EXTT26=
EXTT27=
PLAYORDER=
